<mxfile host="app.diagrams.net" modified="2023-12-26T09:48:57.197Z" agent="Mozilla/5.0 (X11; Linux x86_64) AppleWebKit/537.36 (KHTML, like Gecko) Chrome/120.0.0.0 Safari/537.36" etag="-bnqBqAVey-xFqFGe_zb" version="22.1.11" type="device">
  <diagram name="Page-1" id="TScwOC72J6fxFWOlaMV2">
    <mxGraphModel dx="1928" dy="661" grid="1" gridSize="10" guides="1" tooltips="1" connect="1" arrows="1" fold="1" page="1" pageScale="1" pageWidth="827" pageHeight="1169" math="0" shadow="0">
      <root>
        <mxCell id="0" />
        <mxCell id="1" parent="0" />
        <mxCell id="TZbRZxaE1eoiw7HBzXzt-2" value="chessverse.mooo.com" style="swimlane;whiteSpace=wrap;html=1;" parent="1" vertex="1">
          <mxGeometry x="-380" width="860" height="430" as="geometry" />
        </mxCell>
        <mxCell id="TZbRZxaE1eoiw7HBzXzt-3" value="proxy (nginx) (http, port 80)" style="swimlane;whiteSpace=wrap;html=1;" parent="TZbRZxaE1eoiw7HBzXzt-2" vertex="1">
          <mxGeometry x="20" y="90" width="270" height="310" as="geometry" />
        </mxCell>
        <mxCell id="TZbRZxaE1eoiw7HBzXzt-7" value="" style="rounded=0;whiteSpace=wrap;html=1;" parent="TZbRZxaE1eoiw7HBzXzt-3" vertex="1">
          <mxGeometry x="10" y="35" width="250" height="245" as="geometry" />
        </mxCell>
        <mxCell id="i_06PNgwaQv5iVv7E9Lb-26" value="taiga.chessverse.mooo.com" style="rounded=0;whiteSpace=wrap;html=1;" parent="TZbRZxaE1eoiw7HBzXzt-3" vertex="1">
          <mxGeometry x="35" y="250" width="200" height="20" as="geometry" />
        </mxCell>
        <mxCell id="i_06PNgwaQv5iVv7E9Lb-25" value="gitlab.chessverse.mooo.com" style="rounded=0;whiteSpace=wrap;html=1;" parent="TZbRZxaE1eoiw7HBzXzt-3" vertex="1">
          <mxGeometry x="35" y="220" width="200" height="20" as="geometry" />
        </mxCell>
        <mxCell id="i_06PNgwaQv5iVv7E9Lb-32" value="stocas.chessverse.mooo.com/*" style="swimlane;fontStyle=0;childLayout=stackLayout;horizontal=1;startSize=30;horizontalStack=0;resizeParent=1;resizeParentMax=0;resizeLast=0;collapsible=1;marginBottom=0;whiteSpace=wrap;html=1;" parent="TZbRZxaE1eoiw7HBzXzt-3" vertex="1">
          <mxGeometry x="30" y="35" width="210" height="130" as="geometry" />
        </mxCell>
        <mxCell id="i_06PNgwaQv5iVv7E9Lb-33" value="grafana" style="text;strokeColor=none;fillColor=none;align=left;verticalAlign=middle;spacingLeft=4;spacingRight=4;overflow=hidden;points=[[0,0.5],[1,0.5]];portConstraint=eastwest;rotatable=0;whiteSpace=wrap;html=1;" parent="i_06PNgwaQv5iVv7E9Lb-32" vertex="1">
          <mxGeometry y="30" width="210" height="20" as="geometry" />
        </mxCell>
        <mxCell id="i_06PNgwaQv5iVv7E9Lb-34" value="jenkins" style="text;strokeColor=none;fillColor=none;align=left;verticalAlign=middle;spacingLeft=4;spacingRight=4;overflow=hidden;points=[[0,0.5],[1,0.5]];portConstraint=eastwest;rotatable=0;whiteSpace=wrap;html=1;" parent="i_06PNgwaQv5iVv7E9Lb-32" vertex="1">
          <mxGeometry y="50" width="210" height="20" as="geometry" />
        </mxCell>
        <mxCell id="i_06PNgwaQv5iVv7E9Lb-35" value="mattermost" style="text;strokeColor=none;fillColor=none;align=left;verticalAlign=middle;spacingLeft=4;spacingRight=4;overflow=hidden;points=[[0,0.5],[1,0.5]];portConstraint=eastwest;rotatable=0;whiteSpace=wrap;html=1;" parent="i_06PNgwaQv5iVv7E9Lb-32" vertex="1">
          <mxGeometry y="70" width="210" height="20" as="geometry" />
        </mxCell>
        <mxCell id="i_06PNgwaQv5iVv7E9Lb-37" value="prometheus" style="text;strokeColor=none;fillColor=none;align=left;verticalAlign=middle;spacingLeft=4;spacingRight=4;overflow=hidden;points=[[0,0.5],[1,0.5]];portConstraint=eastwest;rotatable=0;whiteSpace=wrap;html=1;" parent="i_06PNgwaQv5iVv7E9Lb-32" vertex="1">
          <mxGeometry y="90" width="210" height="20" as="geometry" />
        </mxCell>
        <mxCell id="i_06PNgwaQv5iVv7E9Lb-39" value="sonarqube" style="text;strokeColor=none;fillColor=none;align=left;verticalAlign=middle;spacingLeft=4;spacingRight=4;overflow=hidden;points=[[0,0.5],[1,0.5]];portConstraint=eastwest;rotatable=0;whiteSpace=wrap;html=1;" parent="i_06PNgwaQv5iVv7E9Lb-32" vertex="1">
          <mxGeometry y="110" width="210" height="20" as="geometry" />
        </mxCell>
        <mxCell id="TZbRZxaE1eoiw7HBzXzt-14" value="stocas ([stocas|gitlab|taiga].chessverse.mooo.com)" style="swimlane;whiteSpace=wrap;html=1;" parent="TZbRZxaE1eoiw7HBzXzt-2" vertex="1">
          <mxGeometry x="410" y="30" width="440" height="330" as="geometry" />
        </mxCell>
        <mxCell id="TZbRZxaE1eoiw7HBzXzt-15" value="mattermost" style="rounded=0;whiteSpace=wrap;html=1;" parent="TZbRZxaE1eoiw7HBzXzt-14" vertex="1">
          <mxGeometry x="10" y="30" width="120" height="30" as="geometry" />
        </mxCell>
        <mxCell id="vBWPI-AAVFmzxqQR5Plj-91" style="edgeStyle=orthogonalEdgeStyle;rounded=0;orthogonalLoop=1;jettySize=auto;html=1;entryX=0.25;entryY=0;entryDx=0;entryDy=0;" parent="TZbRZxaE1eoiw7HBzXzt-14" source="TZbRZxaE1eoiw7HBzXzt-16" target="TZbRZxaE1eoiw7HBzXzt-18" edge="1">
          <mxGeometry relative="1" as="geometry" />
        </mxCell>
        <mxCell id="vBWPI-AAVFmzxqQR5Plj-92" value="webhooks" style="edgeLabel;html=1;align=center;verticalAlign=middle;resizable=0;points=[];" parent="vBWPI-AAVFmzxqQR5Plj-91" vertex="1" connectable="0">
          <mxGeometry x="0.185" y="-2" relative="1" as="geometry">
            <mxPoint as="offset" />
          </mxGeometry>
        </mxCell>
        <mxCell id="TZbRZxaE1eoiw7HBzXzt-16" value="gitlab" style="rounded=0;whiteSpace=wrap;html=1;" parent="TZbRZxaE1eoiw7HBzXzt-14" vertex="1">
          <mxGeometry x="224.5" y="70" width="76" height="40" as="geometry" />
        </mxCell>
        <mxCell id="TZbRZxaE1eoiw7HBzXzt-17" value="taiga" style="rounded=0;whiteSpace=wrap;html=1;" parent="TZbRZxaE1eoiw7HBzXzt-14" vertex="1">
          <mxGeometry x="10" y="70" width="120" height="30" as="geometry" />
        </mxCell>
        <mxCell id="vBWPI-AAVFmzxqQR5Plj-93" style="edgeStyle=orthogonalEdgeStyle;rounded=0;orthogonalLoop=1;jettySize=auto;html=1;entryX=1;entryY=0.25;entryDx=0;entryDy=0;" parent="TZbRZxaE1eoiw7HBzXzt-14" source="TZbRZxaE1eoiw7HBzXzt-18" target="TZbRZxaE1eoiw7HBzXzt-16" edge="1">
          <mxGeometry relative="1" as="geometry">
            <Array as="points">
              <mxPoint x="400" y="80" />
            </Array>
          </mxGeometry>
        </mxCell>
        <mxCell id="vBWPI-AAVFmzxqQR5Plj-94" value="fetch branch" style="edgeLabel;html=1;align=center;verticalAlign=middle;resizable=0;points=[];" parent="vBWPI-AAVFmzxqQR5Plj-93" vertex="1" connectable="0">
          <mxGeometry x="-0.6894" y="-2" relative="1" as="geometry">
            <mxPoint as="offset" />
          </mxGeometry>
        </mxCell>
        <mxCell id="TZbRZxaE1eoiw7HBzXzt-18" value="jenkins" style="rounded=0;whiteSpace=wrap;html=1;" parent="TZbRZxaE1eoiw7HBzXzt-14" vertex="1">
          <mxGeometry x="330" y="165" width="79" height="30" as="geometry" />
        </mxCell>
        <mxCell id="TZbRZxaE1eoiw7HBzXzt-19" value="sonarqube" style="rounded=0;whiteSpace=wrap;html=1;" parent="TZbRZxaE1eoiw7HBzXzt-14" vertex="1">
          <mxGeometry x="140" y="140" width="95" height="25" as="geometry" />
        </mxCell>
        <mxCell id="TZbRZxaE1eoiw7HBzXzt-39" value="grafana" style="rounded=0;whiteSpace=wrap;html=1;" parent="TZbRZxaE1eoiw7HBzXzt-14" vertex="1">
          <mxGeometry x="10" y="110" width="120" height="30" as="geometry" />
        </mxCell>
        <mxCell id="i_06PNgwaQv5iVv7E9Lb-16" value="prometheus" style="rounded=0;whiteSpace=wrap;html=1;" parent="TZbRZxaE1eoiw7HBzXzt-14" vertex="1">
          <mxGeometry x="20" y="250" width="120" height="30" as="geometry" />
        </mxCell>
        <mxCell id="i_06PNgwaQv5iVv7E9Lb-10" value="" style="endArrow=classic;html=1;rounded=0;entryX=0.5;entryY=1;entryDx=0;entryDy=0;" parent="TZbRZxaE1eoiw7HBzXzt-14" source="i_06PNgwaQv5iVv7E9Lb-16" target="TZbRZxaE1eoiw7HBzXzt-39" edge="1">
          <mxGeometry relative="1" as="geometry">
            <mxPoint x="90" y="250" as="sourcePoint" />
            <mxPoint x="190" y="250" as="targetPoint" />
            <Array as="points">
              <mxPoint x="70" y="220" />
              <mxPoint x="60" y="190" />
            </Array>
          </mxGeometry>
        </mxCell>
        <mxCell id="i_06PNgwaQv5iVv7E9Lb-11" value="send metrics for displaying" style="edgeLabel;resizable=0;html=1;align=center;verticalAlign=middle;" parent="i_06PNgwaQv5iVv7E9Lb-10" connectable="0" vertex="1">
          <mxGeometry relative="1" as="geometry" />
        </mxCell>
        <mxCell id="vBWPI-AAVFmzxqQR5Plj-88" value="" style="endArrow=classic;html=1;rounded=0;exitX=0.5;exitY=1;exitDx=0;exitDy=0;entryX=0.5;entryY=1;entryDx=0;entryDy=0;" parent="TZbRZxaE1eoiw7HBzXzt-14" source="TZbRZxaE1eoiw7HBzXzt-18" target="TZbRZxaE1eoiw7HBzXzt-19" edge="1">
          <mxGeometry width="50" height="50" relative="1" as="geometry">
            <mxPoint x="-180" y="390" as="sourcePoint" />
            <mxPoint x="-130" y="340" as="targetPoint" />
            <Array as="points">
              <mxPoint x="240" y="250" />
            </Array>
          </mxGeometry>
        </mxCell>
        <mxCell id="vBWPI-AAVFmzxqQR5Plj-89" value="launch analysis" style="edgeLabel;html=1;align=center;verticalAlign=middle;resizable=0;points=[];" parent="vBWPI-AAVFmzxqQR5Plj-88" vertex="1" connectable="0">
          <mxGeometry x="-0.0259" y="1" relative="1" as="geometry">
            <mxPoint x="-1" as="offset" />
          </mxGeometry>
        </mxCell>
        <mxCell id="TZbRZxaE1eoiw7HBzXzt-63" value="" style="edgeStyle=none;orthogonalLoop=1;jettySize=auto;html=1;endArrow=classic;startArrow=classic;endSize=8;startSize=8;rounded=0;entryX=1;entryY=0;entryDx=0;entryDy=0;exitX=0;exitY=0.5;exitDx=0;exitDy=0;" parent="TZbRZxaE1eoiw7HBzXzt-2" source="TZbRZxaE1eoiw7HBzXzt-14" target="TZbRZxaE1eoiw7HBzXzt-7" edge="1">
          <mxGeometry width="100" relative="1" as="geometry">
            <mxPoint x="500" y="290" as="sourcePoint" />
            <mxPoint x="230" y="350" as="targetPoint" />
            <Array as="points" />
          </mxGeometry>
        </mxCell>
        <mxCell id="TZbRZxaE1eoiw7HBzXzt-73" value="developer" style="swimlane;whiteSpace=wrap;html=1;" parent="1" vertex="1">
          <mxGeometry x="-820" y="260" width="222" height="160" as="geometry" />
        </mxCell>
        <mxCell id="TZbRZxaE1eoiw7HBzXzt-75" value="browser" style="rounded=0;whiteSpace=wrap;html=1;" parent="TZbRZxaE1eoiw7HBzXzt-73" vertex="1">
          <mxGeometry x="30" y="40" width="160" height="30" as="geometry" />
        </mxCell>
        <mxCell id="TZbRZxaE1eoiw7HBzXzt-92" value="workdir (repo)" style="rounded=0;whiteSpace=wrap;html=1;" parent="TZbRZxaE1eoiw7HBzXzt-73" vertex="1">
          <mxGeometry x="23.5" y="80" width="175" height="32" as="geometry" />
        </mxCell>
        <mxCell id="TZbRZxaE1eoiw7HBzXzt-87" value="" style="endArrow=classic;html=1;rounded=0;exitX=1;exitY=0.5;exitDx=0;exitDy=0;entryX=0.001;entryY=0.125;entryDx=0;entryDy=0;entryPerimeter=0;" parent="1" source="TZbRZxaE1eoiw7HBzXzt-75" target="TZbRZxaE1eoiw7HBzXzt-7" edge="1">
          <mxGeometry relative="1" as="geometry">
            <mxPoint x="140" y="690" as="sourcePoint" />
            <mxPoint x="240" y="690" as="targetPoint" />
            <Array as="points">
              <mxPoint x="-520" y="340" />
            </Array>
          </mxGeometry>
        </mxCell>
        <mxCell id="TZbRZxaE1eoiw7HBzXzt-88" value="&lt;font style=&quot;font-size: 14px;&quot;&gt;development tools&lt;br&gt;&lt;/font&gt;" style="edgeLabel;resizable=0;html=1;align=center;verticalAlign=middle;" parent="TZbRZxaE1eoiw7HBzXzt-87" connectable="0" vertex="1">
          <mxGeometry relative="1" as="geometry" />
        </mxCell>
        <mxCell id="TZbRZxaE1eoiw7HBzXzt-89" value="" style="endArrow=classic;html=1;rounded=0;entryX=0;entryY=0.5;entryDx=0;entryDy=0;exitX=0.25;exitY=1;exitDx=0;exitDy=0;" parent="1" source="TZbRZxaE1eoiw7HBzXzt-73" target="vBWPI-AAVFmzxqQR5Plj-81" edge="1">
          <mxGeometry relative="1" as="geometry">
            <mxPoint x="-650" y="505" as="sourcePoint" />
            <mxPoint x="-180" y="800" as="targetPoint" />
            <Array as="points">
              <mxPoint x="-500" y="520" />
            </Array>
          </mxGeometry>
        </mxCell>
        <mxCell id="TZbRZxaE1eoiw7HBzXzt-90" value="&lt;font style=&quot;font-size: 14px;&quot;&gt;log working time&lt;br&gt;&lt;/font&gt;" style="edgeLabel;resizable=0;html=1;align=center;verticalAlign=middle;" parent="TZbRZxaE1eoiw7HBzXzt-89" connectable="0" vertex="1">
          <mxGeometry relative="1" as="geometry" />
        </mxCell>
        <mxCell id="TZbRZxaE1eoiw7HBzXzt-95" value="" style="endArrow=classic;startArrow=classic;html=1;rounded=0;exitX=1;exitY=0.5;exitDx=0;exitDy=0;entryX=0;entryY=0.5;entryDx=0;entryDy=0;" parent="1" source="TZbRZxaE1eoiw7HBzXzt-92" target="TZbRZxaE1eoiw7HBzXzt-7" edge="1">
          <mxGeometry width="50" height="50" relative="1" as="geometry">
            <mxPoint x="-490" y="560" as="sourcePoint" />
            <mxPoint x="-300" y="470" as="targetPoint" />
            <Array as="points">
              <mxPoint x="-470" y="390" />
            </Array>
          </mxGeometry>
        </mxCell>
        <mxCell id="TZbRZxaE1eoiw7HBzXzt-96" value="&lt;font style=&quot;font-size: 14px;&quot;&gt;gitlab (with jump on git@proxy)&lt;/font&gt;" style="edgeLabel;html=1;align=center;verticalAlign=middle;resizable=0;points=[];" parent="TZbRZxaE1eoiw7HBzXzt-95" connectable="0" vertex="1">
          <mxGeometry x="-0.0868" y="1" relative="1" as="geometry">
            <mxPoint as="offset" />
          </mxGeometry>
        </mxCell>
        <mxCell id="TZbRZxaE1eoiw7HBzXzt-98" value="user (browser app)" style="swimlane;whiteSpace=wrap;html=1;" parent="1" vertex="1">
          <mxGeometry x="-760" y="840" width="200" height="200" as="geometry" />
        </mxCell>
        <mxCell id="TZbRZxaE1eoiw7HBzXzt-99" value="ui" style="rounded=0;whiteSpace=wrap;html=1;" parent="TZbRZxaE1eoiw7HBzXzt-98" vertex="1">
          <mxGeometry x="40" y="30" width="120" height="30" as="geometry" />
        </mxCell>
        <mxCell id="TZbRZxaE1eoiw7HBzXzt-101" value="game (real time, async, websockets)" style="rounded=0;whiteSpace=wrap;html=1;" parent="TZbRZxaE1eoiw7HBzXzt-98" vertex="1">
          <mxGeometry x="30" y="80" width="140" height="40" as="geometry" />
        </mxCell>
        <mxCell id="TZbRZxaE1eoiw7HBzXzt-100" value="api requests (http) (e.g. auth)" style="rounded=0;whiteSpace=wrap;html=1;" parent="TZbRZxaE1eoiw7HBzXzt-98" vertex="1">
          <mxGeometry x="34.5" y="140" width="131" height="40" as="geometry" />
        </mxCell>
        <mxCell id="vBWPI-AAVFmzxqQR5Plj-2" value="chessverse.cloud" style="swimlane;whiteSpace=wrap;html=1;" parent="1" vertex="1">
          <mxGeometry x="-413" y="770" width="783" height="380" as="geometry" />
        </mxCell>
        <mxCell id="vBWPI-AAVFmzxqQR5Plj-3" value="proxy (https, port 443)" style="swimlane;whiteSpace=wrap;html=1;" parent="vBWPI-AAVFmzxqQR5Plj-2" vertex="1">
          <mxGeometry x="50" y="50" width="270" height="190" as="geometry" />
        </mxCell>
        <mxCell id="vBWPI-AAVFmzxqQR5Plj-5" value="chessverse.cloud" style="rounded=0;whiteSpace=wrap;html=1;" parent="vBWPI-AAVFmzxqQR5Plj-3" vertex="1">
          <mxGeometry x="10" y="40" width="250" height="20" as="geometry" />
        </mxCell>
        <mxCell id="vBWPI-AAVFmzxqQR5Plj-45" value="chessverse.cloud/backend/" style="rounded=0;whiteSpace=wrap;html=1;" parent="vBWPI-AAVFmzxqQR5Plj-3" vertex="1">
          <mxGeometry x="10" y="140" width="250" height="20" as="geometry" />
        </mxCell>
        <mxCell id="vBWPI-AAVFmzxqQR5Plj-44" value="chessverse.cloud/async/" style="rounded=0;whiteSpace=wrap;html=1;" parent="vBWPI-AAVFmzxqQR5Plj-3" vertex="1">
          <mxGeometry x="10" y="90" width="250" height="20" as="geometry" />
        </mxCell>
        <mxCell id="vBWPI-AAVFmzxqQR5Plj-54" value="app (frontend)" style="swimlane;whiteSpace=wrap;html=1;" parent="vBWPI-AAVFmzxqQR5Plj-2" vertex="1">
          <mxGeometry x="433" y="45" width="214.5" height="65" as="geometry" />
        </mxCell>
        <mxCell id="vBWPI-AAVFmzxqQR5Plj-55" value="react" style="whiteSpace=wrap;html=1;" parent="vBWPI-AAVFmzxqQR5Plj-54" vertex="1">
          <mxGeometry x="42.25" y="35" width="130" height="20" as="geometry" />
        </mxCell>
        <mxCell id="vBWPI-AAVFmzxqQR5Plj-64" value="database (mysql)" style="swimlane;whiteSpace=wrap;html=1;" parent="vBWPI-AAVFmzxqQR5Plj-2" vertex="1">
          <mxGeometry x="447.5" y="300" width="200" height="60" as="geometry" />
        </mxCell>
        <mxCell id="vBWPI-AAVFmzxqQR5Plj-69" value="async" style="swimlane;whiteSpace=wrap;html=1;startSize=23;" parent="vBWPI-AAVFmzxqQR5Plj-2" vertex="1">
          <mxGeometry x="363" y="140" width="214.5" height="65" as="geometry" />
        </mxCell>
        <mxCell id="vBWPI-AAVFmzxqQR5Plj-70" value="python/socket.io" style="whiteSpace=wrap;html=1;" parent="vBWPI-AAVFmzxqQR5Plj-69" vertex="1">
          <mxGeometry x="42.25" y="35" width="130" height="20" as="geometry" />
        </mxCell>
        <mxCell id="vBWPI-AAVFmzxqQR5Plj-67" value="api" style="swimlane;whiteSpace=wrap;html=1;" parent="vBWPI-AAVFmzxqQR5Plj-2" vertex="1">
          <mxGeometry x="553" y="220" width="214.5" height="65" as="geometry" />
        </mxCell>
        <mxCell id="vBWPI-AAVFmzxqQR5Plj-68" value="python/django" style="whiteSpace=wrap;html=1;" parent="vBWPI-AAVFmzxqQR5Plj-67" vertex="1">
          <mxGeometry x="42.25" y="35" width="130" height="20" as="geometry" />
        </mxCell>
        <mxCell id="vBWPI-AAVFmzxqQR5Plj-71" value="" style="endArrow=classic;startArrow=classic;html=1;rounded=0;exitX=1;exitY=0.5;exitDx=0;exitDy=0;entryX=0;entryY=0.5;entryDx=0;entryDy=0;" parent="vBWPI-AAVFmzxqQR5Plj-2" source="vBWPI-AAVFmzxqQR5Plj-44" target="vBWPI-AAVFmzxqQR5Plj-69" edge="1">
          <mxGeometry width="50" height="50" relative="1" as="geometry">
            <mxPoint x="373" y="40" as="sourcePoint" />
            <mxPoint x="423" y="-10" as="targetPoint" />
          </mxGeometry>
        </mxCell>
        <mxCell id="vBWPI-AAVFmzxqQR5Plj-72" value="" style="endArrow=classic;startArrow=classic;html=1;rounded=0;exitX=1;exitY=0.75;exitDx=0;exitDy=0;entryX=0;entryY=0.5;entryDx=0;entryDy=0;" parent="vBWPI-AAVFmzxqQR5Plj-2" source="vBWPI-AAVFmzxqQR5Plj-45" target="vBWPI-AAVFmzxqQR5Plj-67" edge="1">
          <mxGeometry width="50" height="50" relative="1" as="geometry">
            <mxPoint x="373" y="40" as="sourcePoint" />
            <mxPoint x="423" y="-10" as="targetPoint" />
          </mxGeometry>
        </mxCell>
        <mxCell id="vBWPI-AAVFmzxqQR5Plj-73" value="" style="endArrow=classic;startArrow=classic;html=1;rounded=0;exitX=1;exitY=0.5;exitDx=0;exitDy=0;entryX=0;entryY=0.5;entryDx=0;entryDy=0;" parent="vBWPI-AAVFmzxqQR5Plj-2" source="vBWPI-AAVFmzxqQR5Plj-5" target="vBWPI-AAVFmzxqQR5Plj-54" edge="1">
          <mxGeometry width="50" height="50" relative="1" as="geometry">
            <mxPoint x="373" y="40" as="sourcePoint" />
            <mxPoint x="423" y="-10" as="targetPoint" />
          </mxGeometry>
        </mxCell>
        <mxCell id="vBWPI-AAVFmzxqQR5Plj-77" value="" style="endArrow=classic;html=1;rounded=0;exitX=0.25;exitY=1;exitDx=0;exitDy=0;entryX=0;entryY=0;entryDx=0;entryDy=0;" parent="vBWPI-AAVFmzxqQR5Plj-2" source="vBWPI-AAVFmzxqQR5Plj-69" target="vBWPI-AAVFmzxqQR5Plj-64" edge="1">
          <mxGeometry relative="1" as="geometry">
            <mxPoint x="353" y="20" as="sourcePoint" />
            <mxPoint x="453" y="20" as="targetPoint" />
          </mxGeometry>
        </mxCell>
        <mxCell id="vBWPI-AAVFmzxqQR5Plj-78" value="access" style="edgeLabel;resizable=0;html=1;align=center;verticalAlign=middle;" parent="vBWPI-AAVFmzxqQR5Plj-77" connectable="0" vertex="1">
          <mxGeometry relative="1" as="geometry" />
        </mxCell>
        <mxCell id="vBWPI-AAVFmzxqQR5Plj-79" value="" style="endArrow=classic;html=1;rounded=0;exitX=1;exitY=1;exitDx=0;exitDy=0;entryX=1;entryY=0.75;entryDx=0;entryDy=0;" parent="vBWPI-AAVFmzxqQR5Plj-2" source="vBWPI-AAVFmzxqQR5Plj-67" target="vBWPI-AAVFmzxqQR5Plj-64" edge="1">
          <mxGeometry relative="1" as="geometry">
            <mxPoint x="427" y="215" as="sourcePoint" />
            <mxPoint x="458" y="310" as="targetPoint" />
          </mxGeometry>
        </mxCell>
        <mxCell id="vBWPI-AAVFmzxqQR5Plj-80" value="access" style="edgeLabel;resizable=0;html=1;align=center;verticalAlign=middle;" parent="vBWPI-AAVFmzxqQR5Plj-79" connectable="0" vertex="1">
          <mxGeometry relative="1" as="geometry" />
        </mxCell>
        <mxCell id="vBWPI-AAVFmzxqQR5Plj-7" value="" style="endArrow=classic;html=1;rounded=0;exitX=1;exitY=0.5;exitDx=0;exitDy=0;entryX=0;entryY=0.5;entryDx=0;entryDy=0;" parent="1" source="TZbRZxaE1eoiw7HBzXzt-100" target="vBWPI-AAVFmzxqQR5Plj-45" edge="1">
          <mxGeometry relative="1" as="geometry">
            <mxPoint x="-603" y="1150" as="sourcePoint" />
            <mxPoint x="-500" y="1030" as="targetPoint" />
            <Array as="points">
              <mxPoint x="-470" y="990" />
            </Array>
          </mxGeometry>
        </mxCell>
        <mxCell id="vBWPI-AAVFmzxqQR5Plj-8" value="&lt;font style=&quot;font-size: 14px;&quot;&gt;api access&lt;/font&gt;" style="edgeLabel;resizable=0;html=1;align=center;verticalAlign=middle;" parent="vBWPI-AAVFmzxqQR5Plj-7" connectable="0" vertex="1">
          <mxGeometry relative="1" as="geometry" />
        </mxCell>
        <mxCell id="vBWPI-AAVFmzxqQR5Plj-47" style="edgeStyle=orthogonalEdgeStyle;rounded=0;orthogonalLoop=1;jettySize=auto;html=1;exitX=1;exitY=0.5;exitDx=0;exitDy=0;entryX=0;entryY=0.5;entryDx=0;entryDy=0;" parent="1" source="TZbRZxaE1eoiw7HBzXzt-101" target="vBWPI-AAVFmzxqQR5Plj-44" edge="1">
          <mxGeometry relative="1" as="geometry" />
        </mxCell>
        <mxCell id="vBWPI-AAVFmzxqQR5Plj-48" value="&lt;font style=&quot;font-size: 12px;&quot;&gt;async game&lt;/font&gt;" style="edgeLabel;html=1;align=center;verticalAlign=middle;resizable=0;points=[];" parent="vBWPI-AAVFmzxqQR5Plj-47" vertex="1" connectable="0">
          <mxGeometry x="-0.0511" y="-3" relative="1" as="geometry">
            <mxPoint as="offset" />
          </mxGeometry>
        </mxCell>
        <mxCell id="vBWPI-AAVFmzxqQR5Plj-81" value="freedcamp.com" style="swimlane;whiteSpace=wrap;html=1;" parent="1" vertex="1">
          <mxGeometry x="-320" y="500" width="340" height="100" as="geometry" />
        </mxCell>
        <mxCell id="vBWPI-AAVFmzxqQR5Plj-82" value="logging dashboard" style="rounded=0;whiteSpace=wrap;html=1;" parent="vBWPI-AAVFmzxqQR5Plj-81" vertex="1">
          <mxGeometry x="30" y="40" width="260" height="40" as="geometry" />
        </mxCell>
        <mxCell id="vBWPI-AAVFmzxqQR5Plj-84" value="" style="endArrow=classic;startArrow=classic;html=1;rounded=0;exitX=1;exitY=0.5;exitDx=0;exitDy=0;entryX=0;entryY=0.5;entryDx=0;entryDy=0;" parent="1" source="TZbRZxaE1eoiw7HBzXzt-99" target="vBWPI-AAVFmzxqQR5Plj-5" edge="1">
          <mxGeometry width="50" height="50" relative="1" as="geometry">
            <mxPoint x="-350" y="790" as="sourcePoint" />
            <mxPoint x="-300" y="740" as="targetPoint" />
          </mxGeometry>
        </mxCell>
      </root>
    </mxGraphModel>
  </diagram>
</mxfile>
